<svg width="1920" height="1080" viewBox="0 0 1920 1080" fill="none" xmlns="http://www.w3.org/2000/svg">
<g clip-path="url(#clip0_79_133)">
<path fill-rule="evenodd" clip-rule="evenodd" d="M1877.48 379C1778.36 379 1698 299.318 1698 201.026H1876.68L1877.48 379Z" fill="#F2EFE7"/>
<path opacity="0.5" d="M1876.67 280.062C1920.48 280.062 1956 244.679 1956 201.031C1956 157.383 1920.48 122 1876.67 122C1832.86 122 1797.34 157.383 1797.34 201.031C1797.34 244.679 1832.86 280.062 1876.67 280.062Z" fill="#F7E5AF"/>
<path opacity="0.5" fill-rule="evenodd" clip-rule="evenodd" d="M1876.68 122.015C1887.09 121.963 1897.41 123.968 1907.04 127.915C1916.67 131.862 1925.43 137.674 1932.81 145.016C1940.19 152.358 1946.04 161.086 1950.04 170.698C1954.03 180.31 1956.09 190.617 1956.09 201.026C1956.09 211.435 1954.03 221.742 1950.04 231.354C1946.04 240.966 1940.19 249.694 1932.81 257.036C1925.43 264.378 1916.67 270.19 1907.04 274.137C1897.41 278.084 1887.09 280.089 1876.68 280.037" fill="#F2EFE7"/>
<path fill-rule="evenodd" clip-rule="evenodd" d="M102.571 649C11.681 649 -62 722.435 -62 813.022H101.836L102.571 649Z" fill="#F2EFE7"/>
<path fill-rule="evenodd" clip-rule="evenodd" d="M1658.54 799.268C1661.65 799.258 1664.69 800.171 1667.28 801.89C1669.87 803.609 1671.89 806.058 1673.08 808.926C1674.28 811.794 1674.59 814.953 1673.99 818.002C1673.39 821.051 1671.9 823.853 1669.71 826.054C1667.51 828.254 1664.72 829.754 1661.67 830.363C1658.62 830.972 1655.46 830.664 1652.59 829.476C1649.72 828.289 1647.26 826.276 1645.54 823.692C1643.81 821.108 1642.89 818.071 1642.89 814.963C1642.89 810.807 1644.53 806.819 1647.47 803.876C1650.4 800.933 1654.38 799.275 1658.54 799.268Z" fill="#F2EFE7"/>
<path fill-rule="evenodd" clip-rule="evenodd" d="M1628.67 900.573C1596.45 900.573 1570.33 874.701 1570.33 842.787C1570.33 810.873 1596.45 785 1628.67 785" fill="#F2EFE7"/>
<path fill-rule="evenodd" clip-rule="evenodd" d="M1512 842.787C1512 810.872 1538.12 785 1570.33 785V843.5" fill="#F2EFE7"/>
<path fill-rule="evenodd" clip-rule="evenodd" d="M1628.67 902C1621 901.99 1613.4 900.468 1606.32 897.522C1599.24 894.577 1592.8 890.265 1587.38 884.833C1581.97 879.4 1577.67 872.954 1574.75 865.862C1571.82 858.771 1570.32 851.172 1570.33 843.5H1628.67" fill="#EDEADF"/>
<path fill-rule="evenodd" clip-rule="evenodd" d="M1687 902C1679.33 901.989 1671.73 900.468 1664.65 897.522C1657.57 894.576 1651.13 890.264 1645.72 884.831C1640.3 879.399 1636.01 872.953 1633.08 865.861C1630.16 858.77 1628.66 851.171 1628.67 843.5H1687" fill="#EDEADF"/>
<path d="M147.656 236.11C153.921 236.11 159 231.031 159 224.766C159 218.501 153.921 213.422 147.656 213.422C141.391 213.422 136.312 218.501 136.312 224.766C136.312 231.031 141.391 236.11 147.656 236.11Z" fill="#F2EFE7"/>
<path fill-rule="evenodd" clip-rule="evenodd" d="M169.333 286.963C174.876 287.01 180.373 285.959 185.508 283.87C190.642 281.781 195.312 278.696 199.249 274.793C203.185 270.89 206.309 266.246 208.441 261.13C210.573 256.013 211.671 250.525 211.671 244.982C211.671 239.438 210.573 233.95 208.441 228.833C206.309 223.717 203.185 219.073 199.249 215.17C195.312 211.267 190.642 208.182 185.508 206.093C180.373 204.004 174.876 202.953 169.333 203" fill="#F2EFE7"/>
<path fill-rule="evenodd" clip-rule="evenodd" d="M254 244.982C253.953 233.801 249.467 223.097 241.528 215.224C233.589 207.351 222.848 202.954 211.667 203V245.5" fill="#F2EFE7"/>
<path fill-rule="evenodd" clip-rule="evenodd" d="M169.333 288C180.583 287.978 191.363 283.488 199.302 275.517C207.241 267.547 211.689 256.75 211.667 245.5H169.333" fill="#EDEADF"/>
<path fill-rule="evenodd" clip-rule="evenodd" d="M127 288C138.25 287.978 149.029 283.488 156.968 275.517C164.907 267.547 169.355 256.75 169.333 245.5H127" fill="#EDEADF"/>
<path opacity="0.5" d="M102.375 885.907C142.485 885.907 175 853.392 175 813.282C175 773.172 142.485 740.657 102.375 740.657C62.2653 740.657 29.75 773.172 29.75 813.282C29.75 853.392 62.2653 885.907 102.375 885.907Z" fill="#F7E5AF"/>
<path opacity="0.5" fill-rule="evenodd" clip-rule="evenodd" d="M102.379 740.55C83.0938 740.55 64.5984 748.211 50.9617 761.848C37.325 775.484 29.664 793.98 29.664 813.265C29.664 832.55 37.325 851.046 50.9617 864.682C64.5984 878.319 83.0938 885.98 102.379 885.98" fill="#F2EFE7"/>
</g>
<defs>
<clipPath id="clip0_79_133">
<rect width="1920" height="1080" fill="white"/>
</clipPath>
</defs>
</svg>
