<svg width="1144" height="801" viewBox="0 0 1144 801" fill="none" xmlns="http://www.w3.org/2000/svg">
<g clip-path="url(#clip0_83_328)">
<path opacity="0.1" d="M1142.92 572.47C1141.12 586.234 1138.16 599.82 1134.05 613.08C1130.11 625.829 1125.07 638.21 1118.97 650.08C1118.97 732.59 1052.87 799.47 971.32 799.47H218.25C169.562 799.472 122.809 780.411 88 746.37C88.32 746.28 88.65 746.19 89 746.12C158.46 727.7 231.75 721.34 292 677.59C209.9 663.97 128.28 647.067 47.14 626.88C42.14 625.62 36.46 623.73 30.63 621.75C30.36 617.59 30.21 613.4 30.21 609.18C29.84 608.51 29.48 607.84 29.12 607.18C27.5333 604.227 26.0067 601.227 24.54 598.18C9.61002 567.18 1.08002 531.27 1.08002 492.95C1.08002 432.52 22.31 377.95 56.33 339.46C285.2 358.39 515.44 350.37 745 342.29C677.88 328.957 610.767 315.603 543.66 302.23C434.213 280.463 324.767 258.683 215.32 236.89C285.17 138.21 408.44 72.68 548.86 72.68C647.68 72.68 738 105.13 807.2 158.75C832.64 141.84 861.93 132.19 893.1 132.19C958 132.19 1014.73 173.92 1045.54 236.19C1061.12 267.69 1070.06 304.43 1070.06 343.67C1070.06 350.67 1069.77 357.67 1069.2 364.56C1069.2 364.97 1069.14 365.37 1069.1 365.79C1090.5 383.59 1108.45 406.89 1121.51 433.98C1121.67 434.31 1121.83 434.64 1121.98 434.98C1124.27 439.76 1126.39 444.647 1128.36 449.64H1128.17C1119.77 451.5 1111.38 453.397 1103 455.33C1012.67 476.197 923.183 501.483 834.53 531.19C809.117 539.71 783.783 548.583 758.53 557.81C737.21 565.61 709.79 583.28 687.69 584.81C838.79 574.67 991.1 589.45 1141.5 572.61L1142.92 572.47Z" fill="#FFBF00"/>
<path opacity="0.1" d="M1144 537.22C1144 465.29 1113.94 401.75 1068 363.55C1068.63 356.283 1068.97 348.913 1069 341.44C1069 224.64 989.76 129.97 892 129.97C860.82 129.97 831.53 139.61 806.09 156.52C736.89 102.9 646.56 70.47 547.74 70.47C387 70.47 248.64 156.37 187.28 279.6C183.87 279.37 180.44 279.24 176.98 279.24C79.24 279.24 -0.0200195 373.92 -0.0200195 490.71C-0.0200195 533.65 10.7 573.59 29.1 606.94C29.1 712.02 113.29 797.21 217.1 797.21H970.24C1051.78 797.21 1117.88 730.33 1117.88 647.82C1134.44 615.64 1144 577.77 1144 537.22Z" fill="#FFBF00"/>
<path d="M398.72 542.79C399.02 546.79 400.14 551.54 403.91 552.92C405.732 553.435 407.665 553.404 409.47 552.83C414.217 551.803 418.531 549.334 421.82 545.76C424.97 542.1 426.54 536.93 425.22 532.3C423.95 527.88 420.39 524.57 417.88 520.73C414.94 516.24 414 511.15 411.96 506.34C395.77 507.89 397.81 530.78 398.72 542.79Z" fill="#FBBEBE"/>
<path d="M381.71 350C379.56 357 387.19 364.63 389.65 371.51C392.11 378.39 395.42 385 396.74 392.21C397.66 397.16 397.61 402.21 397.96 407.21C398.63 416.66 400.72 425.94 402.96 435.13C406.12 448.41 409.507 461.63 413.12 474.79C414.917 480.774 416.33 486.866 417.35 493.03C418.292 499.695 418.268 506.461 417.28 513.12C410.933 511.218 404.095 511.845 398.2 514.87C394.078 507.636 391.602 499.581 390.95 491.28C390.698 486.358 390.742 481.426 391.08 476.51C391.72 462.6 385.69 448.67 385.49 434.74C385.552 429.915 385.17 425.095 384.35 420.34C383.7 417.07 383.76 410.95 383.05 407.7C381.91 402.52 386.78 400.13 386.51 394.82L385.03 365.82C384.73 360.78 379.63 354.56 381.71 350Z" fill="#3F3D56"/>
<path opacity="0.1" d="M381.71 350C379.56 357 387.19 364.63 389.65 371.51C392.11 378.39 395.42 385 396.74 392.21C397.66 397.16 397.61 402.21 397.96 407.21C398.63 416.66 400.72 425.94 402.96 435.13C406.12 448.41 409.507 461.63 413.12 474.79C414.917 480.774 416.33 486.866 417.35 493.03C418.292 499.695 418.268 506.461 417.28 513.12C410.933 511.218 404.095 511.845 398.2 514.87C394.078 507.636 391.602 499.581 390.95 491.28C390.698 486.358 390.742 481.426 391.08 476.51C391.72 462.6 385.69 448.67 385.49 434.74C385.552 429.915 385.17 425.095 384.35 420.34C383.7 417.07 383.76 410.95 383.05 407.7C381.91 402.52 386.78 400.13 386.51 394.82L385.03 365.82C384.73 360.78 379.63 354.56 381.71 350Z" fill="black"/>
<path d="M308.7 327.55C309.089 329.251 309.878 330.834 311 332.17C321.124 346.304 332.66 359.371 345.43 371.17C346.736 369.824 347.828 368.286 348.67 366.61C354.467 356.01 357.364 344.068 357.07 331.99C351.29 330.13 344.73 327.53 342.88 321.75C341.41 317.19 343.38 311.75 340.8 307.69C337.13 301.96 321.55 301.23 316.55 305.39C313.27 308.11 314.44 310.65 313.4 314.33C312.25 318.37 308.06 323.25 308.7 327.55Z" fill="#FBBEBE"/>
<path opacity="0.1" d="M308.7 327.55C309.089 329.251 309.878 330.834 311 332.17C321.124 346.304 332.66 359.371 345.43 371.17C346.736 369.824 347.828 368.286 348.67 366.61C354.467 356.01 357.364 344.068 357.07 331.99C351.29 330.13 344.73 327.53 342.88 321.75C341.41 317.19 343.38 311.75 340.8 307.69C337.13 301.96 321.55 301.23 316.55 305.39C313.27 308.11 314.44 310.65 313.4 314.33C312.25 318.37 308.06 323.25 308.7 327.55Z" fill="black"/>
<path d="M313.9 789.8C315.533 790.964 317.405 791.75 319.38 792.1C338.398 796.786 358.042 798.403 377.57 796.89C380.18 796.68 383.66 795.29 383.02 792.75C382.42 790.38 379.02 790.54 376.72 789.83C374.55 789.17 372.92 787.42 371.3 785.83C365.3 779.83 358.04 775.29 350.88 770.75C349.14 769.496 347.194 768.555 345.13 767.97C342.66 767.41 340.08 767.88 337.58 768.36C331.28 769.55 319.27 769.36 314.28 774.01C310.29 777.71 309.71 786.13 313.9 789.8Z" fill="#3F3D56"/>
<path d="M387 784.81C387 786.36 387.18 788.1 388.36 789.09C389.304 789.746 390.444 790.056 391.59 789.97C395.662 789.94 399.649 788.809 403.13 786.696C406.61 784.583 409.454 781.568 411.36 777.97L439.36 774.7C444.66 774.08 450.06 773.43 454.93 771.24C460.68 768.64 465.27 764.07 469.72 759.6C470.503 758.934 471.099 758.076 471.45 757.11C471.91 755.35 470.57 753.5 468.88 752.8C467.136 752.22 465.268 752.116 463.47 752.5C449.8 754.39 436.08 760.5 422.7 757.1C419.43 756.27 416.18 754.86 412.81 755.1C410.995 755.331 409.219 755.806 407.53 756.51C403.18 758.11 390.17 760.38 387.29 764.06C384.41 767.74 387 780.41 387 784.81Z" fill="#3F3D56"/>
<path d="M316.19 472.16C312.19 478.39 303.76 479.75 297.87 484.22C288.82 491.09 287.29 503.89 286.77 515.22C286.42 523.06 286.2 531.02 287.94 538.68C289.16 544.01 291.3 549.09 292.94 554.32C296.44 565.69 297.42 577.67 297.94 589.55C299.31 619.55 298.09 649.74 301.94 679.55C303.05 688.08 304.56 696.55 305.4 705.11C308.16 733.43 303.48 762.63 311.07 790.05C315.121 785.657 320.023 782.132 325.477 779.689C330.931 777.247 336.825 775.937 342.8 775.84C345.3 775.84 347.91 775.99 350.21 774.98C352.51 773.97 354.33 771.29 353.37 768.98C352.795 767.972 352.125 767.021 351.37 766.14C348.06 761.14 353.68 754.07 351.28 748.56C350.35 746.44 348.34 744.87 347.75 742.64C347.12 740.22 348.34 737.74 348.68 735.26C349.36 730.26 346.49 725.6 345 720.81C342.75 713.56 343.65 705.81 344.43 698.22C347.009 673.42 348.141 648.491 347.82 623.56C347.61 606.69 346.77 589.46 351.63 573.3C360.722 581.874 368.511 591.732 374.75 602.56C378.63 609.17 381.98 616.23 383.27 623.79C384.21 629.34 384.03 635.01 383.84 640.63C382.88 669.397 381.917 698.163 380.95 726.93C380.37 744.33 379.87 762.24 385.9 778.56C401.23 770.4 416.9 762.56 432.23 754.35C431.98 748.7 424.38 746.63 421.58 741.72C420.576 739.665 420.03 737.417 419.98 735.13C418.04 711.75 422.81 688.39 427.22 665.35C428.9 656.57 430.54 647.72 430.53 638.79C430.53 624.61 426.38 610.79 422.09 597.28C417.55 582.97 412.8 568.72 408.09 554.47C405.09 545.32 401.99 536.16 398.17 527.3C394.57 518.92 390.29 510.83 387.22 502.3C382.29 488.52 380.6 473.83 378.95 459.3C358.11 463.39 337 468 316.19 472.16Z" fill="#2F2E41"/>
<path d="M326.66 317.86C342.798 317.86 355.88 304.778 355.88 288.64C355.88 272.502 342.798 259.42 326.66 259.42C310.522 259.42 297.44 272.502 297.44 288.64C297.44 304.778 310.522 317.86 326.66 317.86Z" fill="#FBBEBE"/>
<path d="M337.59 359.29L335.47 343.47C335.475 341.719 335.008 339.998 334.117 338.49C333.227 336.982 331.946 335.742 330.41 334.9L310.05 320.02C309.05 319.26 307.67 318.46 306.51 319.02C305.789 319.506 305.284 320.251 305.1 321.1C301.88 330.6 303.87 340.96 304.99 350.93C305.94 359.24 306.26 367.61 306.58 375.93C307.025 383.487 307.005 391.065 306.52 398.62C305.42 411.7 301.52 424.86 304.13 437.73C305.85 446.24 308.88 454.15 309.59 462.81C310.08 468.81 309.93 474.91 311.83 480.59C318.83 477.59 326.75 477.92 334.36 478.32L352.83 479.32C355.392 479.555 357.972 479.495 360.52 479.14C363.368 478.545 366.095 477.477 368.59 475.98C375.148 472.276 380.881 467.275 385.44 461.28C382.32 446.21 385.35 430.65 383.27 415.4C382.08 406.61 379.1 398.14 377.7 389.4C375.98 378.61 376.65 367.4 373.56 356.92C371.81 351.605 369.588 346.458 366.92 341.54C364.215 335.948 359.75 331.399 354.21 328.59C353.182 328.039 352.036 327.748 350.87 327.74C347.93 327.91 346.11 331.03 345.29 333.87C344.29 337.27 344.01 340.87 343.23 344.28C342.11 349.27 340.49 355.08 337.59 359.29Z" fill="#FFBF00"/>
<path d="M277.7 547.79C281.59 551.91 288.7 550.9 293.22 547.51C303.06 540.14 303.97 526.03 304.51 513.75C304.71 509.35 305.01 504.75 307.08 500.89C310.24 494.94 316.79 491.8 322.23 487.81C335.13 478.37 342.7 462.81 344.97 447.03C347.24 431.25 344.63 415.03 340.27 399.66C332.73 373.09 320.03 348.32 307.14 323.9C306.754 322.991 306.137 322.198 305.35 321.6C302.73 319.98 299.89 323.19 298.09 325.7C292.02 334.2 282.02 338.76 272.86 343.79C263.7 348.82 254.34 355.52 251.57 365.59C249.71 372.34 251.16 379.52 252.57 386.37C253.98 393.22 259 398.66 262.69 404.47C267.016 410.834 270.914 417.479 274.36 424.36C275.66 426.925 276.666 429.629 277.36 432.42C277.965 435.718 278.229 439.068 278.15 442.42C278.36 463.14 278.57 483.93 276.07 504.5C274.65 516.14 272.37 527.82 273.41 539.5C273.66 542.64 275.48 545.47 277.7 547.79Z" fill="#3F3D56"/>
<path d="M302.4 509.17C306.56 511.03 310.77 512.96 315.27 513.7C319.77 514.44 324.7 513.84 328.27 511.05C331.84 508.26 333.72 502.98 331.68 498.9C334.887 499.002 338.097 498.848 341.28 498.44C343.11 498.21 345.33 497.51 345.61 495.69C345.93 493.57 343.37 492.29 341.3 491.69L330.14 488.62C324.895 486.672 319.208 486.243 313.73 487.38L296.73 489.98C296.279 490.015 295.841 490.152 295.45 490.38C294.942 490.816 294.591 491.406 294.45 492.06C293.63 494.65 289.84 501.89 291.14 504.47C292.3 506.68 300.07 508 302.4 509.17Z" fill="#FBBEBE"/>
<path d="M409 520.13C407.984 522.403 406.488 524.43 404.615 526.072C402.742 527.713 400.537 528.93 398.15 529.64C397.109 530.003 395.989 530.076 394.91 529.85C392.91 529.29 391.81 527.2 390.98 525.3C371.18 480.22 372.29 428.91 359.69 381.3C355.95 367.17 350.95 352.97 351.86 338.38C352.02 335.77 352.57 332.83 354.75 331.38C356.69 330.08 359.33 330.43 361.45 331.38C363.57 332.33 365.45 333.88 367.45 334.94C370.76 336.63 374.61 337.11 377.79 339.02C382.51 341.85 384.93 347.26 387.04 352.34C391.55 363.18 396.04 374.34 396.39 386.1C397.16 408.94 387.03 430.89 392.3 453.1C393.35 457.5 394.9 461.77 396.38 466.04C401.678 481.359 406.02 496.993 409.38 512.85C409.93 515.57 410.05 517.64 409 520.13Z" fill="#3F3D56"/>
<path d="M307.71 291.21C309.46 288.38 311.89 285.89 312.83 282.7C313.5 280.43 313.36 277.97 314.17 275.7C316.17 270.22 323.11 268.2 328.86 269.14C334.61 270.08 339.78 273.14 345.4 274.67C348.51 275.53 352.83 275.27 353.71 272.16C354.29 270.1 352.9 268.06 351.58 266.37L335 245.21C332.82 245.77 330.38 246.29 328.4 245.21C327.26 244.58 326.4 243.47 325.13 243.11C321.68 242.11 318.79 247.42 315.33 246.5C314.33 246.24 313.54 245.5 312.54 245.42C309.75 245.19 308.7 249.81 305.91 250.04C304.75 250.14 303.63 249.4 302.48 249.51C301.451 249.717 300.531 250.289 299.89 251.12C294.34 257.01 292.09 265.46 292.39 273.54C292.69 281.62 291.3 289.46 294.39 296.92C295.75 300.18 298.51 304.02 301.86 302.92C301.86 298.52 305.96 294.13 306.01 289.73" fill="#2F2E41"/>
<g opacity="0.1">
<path d="M364.17 586.99C358.223 577.151 350.967 568.165 342.6 560.28C337.74 576.44 338.6 593.67 338.79 610.54C339.111 635.471 337.979 660.4 335.4 685.2C334.61 692.75 333.72 700.54 335.97 707.79C337.46 712.58 340.33 717.26 339.65 722.24C339.31 724.72 338.09 727.24 338.72 729.62C339.31 731.85 341.32 733.42 342.25 735.54C344.65 741.05 339.03 748.1 342.34 753.12C343.095 754.001 343.765 754.952 344.34 755.96C345.34 758.28 343.48 760.96 341.18 761.96C338.88 762.96 336.27 762.79 333.77 762.82C324.306 762.979 315.143 766.172 307.63 771.93C308.289 778.044 309.429 784.096 311.04 790.03C315.091 785.637 319.993 782.112 325.447 779.669C330.901 777.227 336.795 775.917 342.77 775.82C345.27 775.82 347.88 775.97 350.18 774.96C352.48 773.95 354.3 771.27 353.34 768.96C352.765 767.952 352.095 767.001 351.34 766.12C348.03 761.12 353.65 754.05 351.25 748.54C350.32 746.42 348.31 744.85 347.72 742.62C347.09 740.2 348.31 737.72 348.65 735.24C349.33 730.24 346.46 725.58 344.97 720.79C342.72 713.54 343.61 705.79 344.4 698.2C346.979 673.4 348.111 648.471 347.79 623.54C347.58 606.67 346.74 589.44 351.6 573.28C356.127 577.529 360.328 582.112 364.17 586.99Z" fill="black"/>
</g>
<g opacity="0.1">
<path d="M292.42 274.47C292.42 273.1 292.42 271.72 292.42 270.33C292.36 271.4 292.36 272.47 292.42 273.53C292.41 273.87 292.41 274.18 292.42 274.47Z" fill="black"/>
<path d="M345.4 270.72C339.78 269.18 334.6 266.14 328.86 265.19C323.12 264.24 316.15 266.27 314.17 271.75C313.36 273.97 313.5 276.43 312.83 278.75C311.89 281.94 309.46 284.43 307.71 287.26L306.06 285.8C306.01 290.2 301.96 294.59 301.91 298.99C298.56 300.08 295.8 296.24 294.44 292.99C293.038 289.403 292.332 285.581 292.36 281.73C292.27 286.96 292.36 292.05 294.44 296.99C295.8 300.25 298.56 304.09 301.91 302.99C301.91 298.59 306.01 294.2 306.06 289.8L307.71 291.26C309.46 288.43 311.89 285.94 312.83 282.75C313.5 280.48 313.36 278.02 314.17 275.75C316.17 270.27 323.11 268.25 328.86 269.19C334.61 270.13 339.78 273.19 345.4 274.72C348.51 275.58 352.83 275.32 353.71 272.21C353.962 271.16 353.824 270.055 353.32 269.1C351.93 271.35 348.18 271.47 345.4 270.72Z" fill="black"/>
</g>
<path d="M250.89 395.38C250.037 401.48 248.808 407.521 247.21 413.47L240.21 442C239.46 445 238.71 448.16 239.04 451.27C239.5 455.46 241.88 459.17 244.29 462.63C257.994 482.29 274.728 499.652 293.87 514.07C292.76 508.37 296.71 503.07 300.42 498.59C304.13 494.11 307.75 489.82 312.6 486.92C300.453 475.507 288.7 463.69 277.34 451.47C276.143 450.282 275.114 448.936 274.28 447.47C271.54 442.18 274.28 435.86 276.66 430.4C284.19 413.01 287.75 393.27 282.92 374.95C281.1 368.06 277.92 361.18 272.13 356.95C269.6 355.1 266.13 353.85 263.37 355.24C262.193 355.921 261.171 356.841 260.37 357.94C251.38 368.93 252.45 382.08 250.89 395.38Z" fill="#3F3D56"/>
<path d="M256.76 798.86C272.909 798.86 286 796.344 286 793.24C286 790.136 272.909 787.62 256.76 787.62C240.611 787.62 227.52 790.136 227.52 793.24C227.52 796.344 240.611 798.86 256.76 798.86Z" fill="#FFBF00"/>
<path d="M256.27 795.31C258.148 795.31 259.67 793.313 259.67 790.85C259.67 788.387 258.148 786.39 256.27 786.39C254.392 786.39 252.87 788.387 252.87 790.85C252.87 793.313 254.392 795.31 256.27 795.31Z" fill="#3F3D56"/>
<path d="M256.27 789.86C258.148 789.86 259.67 787.863 259.67 785.4C259.67 782.937 258.148 780.94 256.27 780.94C254.392 780.94 252.87 782.937 252.87 785.4C252.87 787.863 254.392 789.86 256.27 789.86Z" fill="#3F3D56"/>
<path d="M256.27 784.42C258.148 784.42 259.67 782.423 259.67 779.96C259.67 777.497 258.148 775.5 256.27 775.5C254.392 775.5 252.87 777.497 252.87 779.96C252.87 782.423 254.392 784.42 256.27 784.42Z" fill="#3F3D56"/>
<path d="M256.27 778.97C258.148 778.97 259.67 776.973 259.67 774.51C259.67 772.047 258.148 770.05 256.27 770.05C254.392 770.05 252.87 772.047 252.87 774.51C252.87 776.973 254.392 778.97 256.27 778.97Z" fill="#3F3D56"/>
<path d="M256.27 773.52C258.148 773.52 259.67 771.523 259.67 769.06C259.67 766.597 258.148 764.6 256.27 764.6C254.392 764.6 252.87 766.597 252.87 769.06C252.87 771.523 254.392 773.52 256.27 773.52Z" fill="#3F3D56"/>
<path d="M256.27 768.08C258.148 768.08 259.67 766.083 259.67 763.62C259.67 761.157 258.148 759.16 256.27 759.16C254.392 759.16 252.87 761.157 252.87 763.62C252.87 766.083 254.392 768.08 256.27 768.08Z" fill="#3F3D56"/>
<path d="M256.27 762.63C258.148 762.63 259.67 760.633 259.67 758.17C259.67 755.707 258.148 753.71 256.27 753.71C254.392 753.71 252.87 755.707 252.87 758.17C252.87 760.633 254.392 762.63 256.27 762.63Z" fill="#3F3D56"/>
<path d="M270.139 717.43C270.607 716.838 271.031 716.213 271.409 715.56L262.469 714.09L272.139 714.16C273.066 712.14 273.572 709.953 273.625 707.732C273.678 705.51 273.278 703.301 272.449 701.24L259.449 707.97L271.449 699.18C270.331 697.235 268.824 695.542 267.022 694.207C265.22 692.871 263.161 691.921 260.976 691.417C258.79 690.913 256.524 690.865 254.319 691.277C252.114 691.688 250.017 692.55 248.16 693.808C246.303 695.067 244.726 696.695 243.527 698.59C242.327 700.486 241.532 702.608 241.19 704.825C240.849 707.042 240.968 709.306 241.541 711.475C242.113 713.643 243.127 715.671 244.519 717.43C243.79 718.358 243.166 719.364 242.659 720.43L254.269 726.43L241.889 722.28C241.02 724.849 240.805 727.595 241.264 730.268C241.724 732.941 242.842 735.458 244.519 737.59C242.625 739.995 241.447 742.885 241.118 745.929C240.79 748.973 241.325 752.047 242.662 754.802C243.999 757.556 246.084 759.878 248.678 761.503C251.273 763.127 254.273 763.989 257.334 763.989C260.396 763.989 263.395 763.127 265.99 761.503C268.585 759.878 270.67 757.556 272.007 754.802C273.344 752.047 273.879 748.973 273.55 745.929C273.222 742.885 272.043 739.995 270.149 737.59C272.41 734.716 273.64 731.166 273.64 727.51C273.64 723.853 272.41 720.303 270.149 717.43H270.139Z" fill="#FFBF00"/>
<path opacity="0.1" d="M239.89 730.98C239.883 734.637 241.113 738.19 243.38 741.06C241.486 743.465 240.308 746.355 239.979 749.399C239.651 752.443 240.185 755.518 241.522 758.272C242.859 761.026 244.944 763.348 247.539 764.973C250.134 766.598 253.134 767.459 256.195 767.459C259.256 767.459 262.256 766.598 264.851 764.973C267.446 763.348 269.531 761.026 270.868 758.272C272.205 755.518 272.739 752.443 272.411 749.399C272.082 746.355 270.904 743.465 269.01 741.06C271.2 738.29 239.89 729.15 239.89 730.98Z" fill="black"/>
<path d="M920.19 800.94C942.397 800.94 960.4 797.896 960.4 794.14C960.4 790.384 942.397 787.34 920.19 787.34C897.983 787.34 879.98 790.384 879.98 794.14C879.98 797.896 897.983 800.94 920.19 800.94Z" fill="#FFBF00"/>
<path d="M936.82 783.02C938.653 781.526 939.989 779.51 940.65 777.24C941.15 774.94 940.17 772.18 937.97 771.34C935.51 770.4 932.88 772.11 930.89 773.83C928.9 775.55 926.61 777.52 924.01 777.15C925.35 775.933 926.352 774.39 926.92 772.671C927.488 770.952 927.601 769.116 927.25 767.34C927.136 766.604 926.825 765.913 926.35 765.34C924.98 763.88 922.51 764.51 920.87 765.66C915.67 769.31 914.22 776.38 914.19 782.73C913.67 780.44 914.11 778.05 914.1 775.73C914.09 773.41 913.44 770.73 911.45 769.51C910.224 768.847 908.844 768.519 907.45 768.56C905.12 768.47 902.51 768.71 900.92 770.42C898.92 772.54 899.45 776.1 901.17 778.42C902.89 780.74 905.52 782.23 907.94 783.84C909.876 784.994 911.527 786.57 912.77 788.45C912.92 788.713 913.041 788.991 913.13 789.28H927.79C931.069 787.61 934.106 785.504 936.82 783.02Z" fill="#FFBF00"/>
<path d="M733.75 415.98L734.62 414.04L733.46 413.52L732.59 415.46L728.04 420.41L733.09 422.67L733.75 415.98Z" fill="#3F3D56"/>
<path d="M738.79 418.3L739.68 416.31L738.49 415.77L737.6 417.76L732.93 422.84L738.11 425.16L738.79 418.3Z" fill="#3F3D56"/>
<path d="M743.85 420.5L744.72 418.56L743.55 418.04L742.68 419.98L738.13 424.93L743.18 427.19L743.85 420.5Z" fill="#3F3D56"/>
<path d="M779.8 436.66L780.69 434.67L779.5 434.13L778.61 436.12L773.94 441.2L779.12 443.52L779.8 436.66Z" fill="#3F3D56"/>
<path d="M784.98 438.98L785.87 436.99L784.68 436.45L783.78 438.44L779.12 443.52L784.3 445.84L784.98 438.98Z" fill="#3F3D56"/>
<path d="M790.15 441.29L791.05 439.3L789.85 438.77L788.96 440.76L784.3 445.84L789.47 448.16L790.15 441.29Z" fill="#3F3D56"/>
<path d="M756.31 426.14L757.2 424.15L756.01 423.61L755.12 425.61L750.45 430.69L755.63 433L756.31 426.14Z" fill="#3F3D56"/>
<path d="M761.49 428.46L762.38 426.47L761.18 425.93L760.29 427.92L755.63 433L760.8 435.32L761.49 428.46Z" fill="#3F3D56"/>
<path d="M766.66 430.77L767.55 428.78L766.36 428.25L765.47 430.24L760.8 435.32L765.98 437.64L766.66 430.77Z" fill="#3F3D56"/>
<path d="M813.43 284.67C816.35 277.75 813.52 262.01 809.17 260.06C804.82 258.11 791.58 266.66 788.36 273.45L788.16 273.35L726.48 411.11L751.76 422.47L813.44 284.67H813.43Z" fill="#CDCDDF"/>
<path d="M859.62 305.35C862.53 298.43 859.71 282.69 855.35 280.74C850.99 278.79 837.77 287.34 834.55 294.13L834.34 294.03L772.66 431.79L798 443.11L859.68 305.35H859.62Z" fill="#CDCDDF"/>
<path d="M864.89 230.59C869.24 220.47 868.89 199.11 864.57 197.16C860.25 195.21 844.47 209.38 839.82 219.37L839.62 219.27L749.17 421.27L774.45 432.59L864.9 230.59H864.89Z" fill="white"/>
<path d="M862.072 209.417C862.664 208.096 862.074 206.547 860.756 205.957C859.438 205.367 857.89 205.959 857.299 207.28L854.806 212.847C854.215 214.168 854.804 215.717 856.122 216.307C857.44 216.897 858.988 216.305 859.58 214.984L862.072 209.417Z" fill="#3F3D56"/>
<path opacity="0.3" d="M662.17 448.3L687.85 451.76C692 452.32 696.42 452.84 700.23 451.1C706.54 448.21 708.94 440.23 714.75 436.45C721.3 432.18 730.87 434.89 735.44 441.23C736.64 442.91 737.59 444.82 739.23 446.07C745.8 451.07 756.23 441.67 763.11 446.31C766.54 448.64 767.62 453.85 771.54 455.23C774.13 456.14 776.99 454.96 779.73 455.18C786.58 455.73 789.67 464.52 788.23 471.24C786.79 477.96 782.63 483.9 781.51 490.67C780.39 497.44 784.45 506.08 791.3 505.67" fill="white"/>
<path opacity="0.1" d="M815 89C821.627 89 827 83.6274 827 77C827 70.3726 821.627 65 815 65C808.373 65 803 70.3726 803 77C803 83.6274 808.373 89 815 89Z" fill="#0080FF"/>
<path opacity="0.1" d="M960 24C966.627 24 972 18.6274 972 12C972 5.37258 966.627 0 960 0C953.373 0 948 5.37258 948 12C948 18.6274 953.373 24 960 24Z" fill="#0080FF"/>
<path opacity="0.1" d="M900 69C906.627 69 912 63.6274 912 57C912 50.3726 906.627 45 900 45C893.373 45 888 50.3726 888 57C888 63.6274 893.373 69 900 69Z" fill="#0080FF"/>
<path opacity="0.1" d="M1041 173C1047.63 173 1053 167.627 1053 161C1053 154.373 1047.63 149 1041 149C1034.37 149 1029 154.373 1029 161C1029 167.627 1034.37 173 1041 173Z" fill="#0080FF"/>
<path opacity="0.1" d="M972 101C978.627 101 984 95.6274 984 89C984 82.3726 978.627 77 972 77C965.373 77 960 82.3726 960 89C960 95.6274 965.373 101 972 101Z" fill="#0080FF"/>
</g>
<defs>
<clipPath id="clip0_83_328">
<rect width="1144" height="800.93" fill="white"/>
</clipPath>
</defs>
</svg>
