<svg width="752" height="614" viewBox="0 0 752 614" fill="none" xmlns="http://www.w3.org/2000/svg">
<g clip-path="url(#clip0_84_409)">
<path d="M712.067 501.376C725.219 548.196 598.628 655.167 375.905 595.451C196.582 547.372 39.7437 527.008 39.7437 501.376C39.7437 475.744 190.248 502.631 375.905 502.631C561.562 502.631 705.135 476.7 712.067 501.376Z" fill="#3F3D56"/>
<path opacity="0.1" d="M712.067 501.376C725.219 548.196 598.628 655.167 375.905 595.451C196.582 547.372 39.7437 527.008 39.7437 501.376C39.7437 475.744 190.248 502.631 375.905 502.631C561.562 502.631 705.135 476.7 712.067 501.376Z" fill="black"/>
<path d="M712.067 501.376C725.219 548.196 598.628 607.502 375.905 547.787C196.582 499.707 39.7437 527.008 39.7437 501.376C39.7437 475.745 190.248 454.966 375.905 454.966C561.562 454.966 705.135 476.7 712.067 501.376Z" fill="#3F3D56"/>
<path opacity="0.1" d="M484 535C498.359 535 510 530.971 510 526C510 521.029 498.359 517 484 517C469.641 517 458 521.029 458 526C458 530.971 469.641 535 484 535Z" fill="black"/>
<path opacity="0.1" d="M590 535C604.359 535 616 530.971 616 526C616 521.029 604.359 517 590 517C575.641 517 564 521.029 564 526C564 530.971 575.641 535 590 535Z" fill="black"/>
<path opacity="0.1" d="M376 509C422.944 509 461 498.703 461 486C461 473.297 422.944 463 376 463C329.056 463 291 473.297 291 486C291 498.703 329.056 509 376 509Z" fill="black"/>
<path d="M752 416V0H0V416H347V471.609C329.669 473.685 318 477.559 318 482C318 488.627 343.967 494 376 494C408.033 494 434 488.627 434 482C434 477.559 422.331 473.685 405 471.609V416H752Z" fill="#3F3D56"/>
<path d="M713 14.5745H39V387.426H713V14.5745Z" fill="#F2F2F2"/>
<path opacity="0.1" d="M713 15C713 15 433 44 382 156C331 268 39 387 39 387H713V15Z" fill="black"/>
<path d="M587.246 193V220.648H483.754V194.69H480.754V526H483.754V466.688H587.246V526H590.246V193H587.246ZM587.246 223.648V269.256H483.754V223.648L587.246 223.648ZM483.754 366.472V320.864H587.246V366.472H483.754ZM587.246 369.472V415.079H483.754V369.472H587.246ZM483.754 317.864V272.256H587.246V317.864H483.754ZM483.754 463.688V418.079H587.246V463.688H483.754Z" fill="#2F2E41"/>
<path d="M451.121 199.583V203.727C451.121 203.727 448.161 204.911 448.161 209.648C448.161 214.384 445.793 232.145 445.793 232.145C445.793 232.145 449.937 235.697 453.489 234.513C455.455 233.916 457.272 232.907 458.817 231.553L459.409 213.2L457.041 208.464V200.175L451.121 199.583Z" fill="#FFC107"/>
<path d="M564.378 35C564.378 35 554.082 36.1841 554.082 40.9203C554.082 45.6565 545.845 63.4173 545.845 63.4173C545.845 63.4173 560.26 66.9694 572.615 65.7854C584.97 64.6013 591.148 62.8252 591.148 62.8252L593.207 44.4724L584.97 39.7362L564.378 35Z" fill="#FFBF00"/>
<path d="M565.382 76.4418V65.1933C565.382 65.1933 552.949 40.3282 563.014 40.3282C573.078 40.3282 574.262 62.8252 574.262 62.8252V78.81L565.382 76.4418Z" fill="#FFB8B8"/>
<path d="M458.817 194.255C458.817 194.255 452.305 190.703 451.121 194.255C449.937 197.807 446.385 205.504 451.121 206.096C455.857 206.688 460.593 202.543 460.593 202.543L458.817 194.255Z" fill="#FFB8B8"/>
<path d="M490.869 218.236C490.869 218.236 487.304 222.944 492.476 268.876C497.648 314.808 494.668 348.252 504.487 347.794C504.487 347.794 501.924 357.754 510.267 358.121C518.611 358.489 522.423 359.068 523.072 356.766C523.722 354.465 524.739 343.821 522.473 343.926C522.473 343.926 522.614 346.948 523.56 334.792C524.507 322.637 521.827 265.235 525.25 257.506L538.64 284.887C538.64 284.887 539.239 297.727 541.787 303.664C544.335 309.6 549.734 344.168 549.734 344.168L549.225 349.49C549.225 349.49 567.493 351.665 568.108 348.608C568.722 345.552 568.51 341.02 567.685 339.545C566.859 338.07 566.859 338.07 568.228 334.978C568.835 333.816 569.184 332.537 569.254 331.228C569.323 329.918 569.111 328.61 568.631 327.39C567.77 325.159 565.478 276.065 565.478 276.065C565.478 276.065 561.181 216.467 551.977 213.869C542.772 211.271 490.869 218.236 490.869 218.236Z" fill="#2F2E41"/>
<path d="M506.964 352.22L501.415 363.076C501.415 363.076 491.816 360.118 494.109 368.716C503.324 369.003 512.546 368.445 521.66 367.051C521.66 367.051 525.507 368.385 526.156 366.084C526.806 363.783 523.792 355.976 521.526 356.082C519.26 356.187 506.964 352.22 506.964 352.22Z" fill="#2F2E41"/>
<path d="M550.63 347.153C550.63 347.153 545.223 361.031 547.524 361.68C549.825 362.33 570.359 364.399 571.905 365.084C573.451 365.769 581.039 366.171 581.582 361.604C582.126 357.037 577.524 355.738 577.524 355.738C577.524 355.738 569.145 354.615 566.527 347.168C563.908 339.721 550.63 347.153 550.63 347.153Z" fill="#2F2E41"/>
<path d="M499.357 105.639C508.091 105.639 515.171 98.559 515.171 89.8249C515.171 81.0908 508.091 74.0104 499.357 74.0104C490.623 74.0104 483.542 81.0908 483.542 89.8249C483.542 98.559 490.623 105.639 499.357 105.639Z" fill="#FFB8B8"/>
<path d="M491.033 97.316C491.033 97.316 495.195 118.957 493.53 123.118C491.866 127.28 516.836 121.454 516.836 121.454C516.836 121.454 511.842 99.813 512.674 94.8189C513.506 89.8249 491.033 97.316 491.033 97.316Z" fill="#FFB8B8"/>
<path d="M498.876 70.2918C497.561 70.0535 496.209 70.1132 494.92 70.4664C493.889 70.9233 492.939 71.5463 492.109 72.3107C490.603 73.5109 488.994 74.5765 487.302 75.4954C485.889 76.1035 484.616 76.996 483.562 78.1172C483.117 78.7296 482.761 79.4025 482.506 80.1153C480.884 84.2579 480.448 88.7704 481.247 93.1468C481.337 93.7687 481.524 94.3725 481.802 94.9362C482.667 96.5301 484.578 97.1582 486.187 97.9937C489.243 99.58 491.559 102.251 494.066 104.612C494.997 105.541 496.043 106.347 497.179 107.011C500.754 108.96 505.125 108.324 509.139 107.635C509.423 107.634 509.705 107.578 509.967 107.468C510.23 107.358 510.468 107.197 510.668 106.995C510.868 106.793 511.026 106.553 511.132 106.289C511.239 106.026 511.293 105.743 511.29 105.459L514.458 91.2089C515.033 89.0975 515.306 86.9157 515.27 84.728C515.049 81.2688 513.177 76.477 510.638 74.0198C507.68 71.1567 502.743 70.7011 498.876 70.2918Z" fill="#2F2E41"/>
<path d="M487.235 124.396C487.235 124.396 488.419 116.108 495.523 115.516C499.541 115.136 503.509 114.343 507.363 113.147C507.955 113.147 515.652 113.739 519.204 117.292C519.204 117.292 521.572 120.844 522.756 118.476C523.94 116.108 523.94 114.924 526.308 116.108C528.676 117.292 528.676 112.555 532.821 113.147C536.965 113.739 547.621 140.381 547.621 140.381L544.069 144.525C544.069 144.525 539.333 176.494 547.621 190.111C555.91 203.727 559.462 218.528 551.173 221.488C542.885 224.448 484.866 251.09 487.235 234.513C489.603 217.936 487.827 191.887 485.458 191.295C483.09 190.703 470.066 143.933 470.066 143.933C470.59 140.963 471.835 138.168 473.694 135.794C475.552 133.419 477.966 131.538 480.722 130.316C490.195 126.172 487.235 124.396 487.235 124.396Z" fill="#575A88"/>
<path d="M529.86 115.516L532.821 113.147C532.821 113.147 538.149 113.147 538.741 111.963C539.333 110.779 542.293 110.779 544.661 109.595C547.029 108.411 544.069 106.635 547.029 105.451C549.989 104.267 549.989 105.451 549.989 102.491C549.989 99.5309 557.686 96.5707 558.278 93.0186C558.87 89.4664 564.79 72.8897 564.79 72.8897L576.039 76.4418L573.078 97.7548C573.078 97.7548 573.078 108.411 567.75 115.516C562.422 122.62 550.581 140.381 544.661 140.973C538.741 141.565 529.86 115.516 529.86 115.516Z" fill="#575A88"/>
<path d="M473.618 140.973L470.066 143.933C470.066 143.933 468.882 156.957 468.882 157.549C468.882 158.141 470.066 165.246 468.882 165.838C467.698 166.43 465.33 178.27 465.922 178.862V180.638L457.633 193.663V206.096L477.17 193.663C477.17 193.663 488.419 192.479 486.643 182.415C484.866 172.35 473.618 140.973 473.618 140.973Z" fill="#575A88"/>
<path d="M376 416C382.075 416 387 411.075 387 405C387 398.925 382.075 394 376 394C369.925 394 365 398.925 365 405C365 411.075 369.925 416 376 416Z" fill="#FFBF00"/>
</g>
<defs>
<clipPath id="clip0_84_409">
<rect width="752" height="613.121" fill="white"/>
</clipPath>
</defs>
</svg>
