<svg width="28" height="28" viewBox="0 0 28 28" fill="none" xmlns="http://www.w3.org/2000/svg">
<g clip-path="url(#clip0_35_17)">
<path d="M14 28C21.732 28 28 21.732 28 14C28 6.26801 21.732 0 14 0C6.26801 0 0 6.26801 0 14C0 21.732 6.26801 28 14 28Z" fill="#FFECB4"/>
<path fill-rule="evenodd" clip-rule="evenodd" d="M21.84 25.76C21.84 21.7393 18.3299 18.48 14 18.48C9.67013 18.48 6.16 21.7393 6.16 25.76C6.16 25.76 8.63334 28 14 28C19.3667 28 21.84 25.76 21.84 25.76Z" fill="#FFC107"/>
<path fill-rule="evenodd" clip-rule="evenodd" d="M17.36 19.04C17.36 20.8957 15.8558 21.84 14 21.84C12.1443 21.84 10.64 20.8957 10.64 19.04C10.64 19.04 11.923 18.48 14 18.48C16.077 18.48 17.36 19.04 17.36 19.04Z" fill="#D1701F"/>
<path fill-rule="evenodd" clip-rule="evenodd" d="M14 14.56C14.5941 14.56 15.1638 14.796 15.5839 15.2161C16.004 15.6362 16.24 16.2059 16.24 16.8V18.48C16.24 19.0741 16.004 19.6438 15.5839 20.0639C15.1638 20.484 14.5941 20.72 14 20.72C13.4059 20.72 12.8362 20.484 12.4161 20.0639C11.996 19.6438 11.76 19.0741 11.76 18.48V16.8C11.76 16.2059 11.996 15.6362 12.4161 15.2161C12.8362 14.796 13.4059 14.56 14 14.56Z" fill="#EE8C3C"/>
<path fill-rule="evenodd" clip-rule="evenodd" d="M14.2713 4.62C17.389 4.62 19.9149 7.59733 19.9149 11.2701C19.9149 14.9429 17.3882 17.92 14.2713 17.92C11.1543 17.92 8.62756 14.9427 8.62756 11.2701C8.62756 7.59753 11.1543 4.62 14.2713 4.62Z" fill="#FECBA1"/>
<path fill-rule="evenodd" clip-rule="evenodd" d="M8.68677 12.18C8.68677 12.18 9.11451 10.4146 10.5882 9.48306C11.6387 8.81901 13.7299 9.11489 14.7649 8.66213C16.4398 7.93035 17.2329 7.08142 17.2329 7.08142C17.8591 7.69644 18.4073 8.38605 18.8653 9.13475C19.43 10.007 19.7899 10.9959 19.9177 12.0271C19.9177 12.0271 20.7998 7.82789 18.5561 5.4739C18.2806 5.18476 17.7794 5.29716 17.7794 5.29716C17.7794 5.29716 17.0935 4.44147 16.8169 4.33662C16.002 4.0444 15.1406 3.90309 14.275 3.9196C6.60583 3.92 8.68677 12.18 8.68677 12.18Z" fill="#263A5B"/>
</g>
<defs>
<clipPath id="clip0_35_17">
<rect width="28" height="28" fill="white"/>
</clipPath>
</defs>
</svg>
